<?xml version="1.0" encoding="UTF-8" standalone="no"?>
<!-- Designed by Freepik -->

<svg
   width="386"
   height="242"
   viewBox="0 0 102.12917 64.029167"
   version="1.1"
   id="svg1"
   inkscape:version="1.4 (86a8ad7, 2024-10-11)"
   sodipodi:docname="404.svg"
   xmlns:inkscape="http://www.inkscape.org/namespaces/inkscape"
   xmlns:sodipodi="http://sodipodi.sourceforge.net/DTD/sodipodi-0.dtd"
   xmlns="http://www.w3.org/2000/svg"
   xmlns:svg="http://www.w3.org/2000/svg">
  <sodipodi:namedview
     id="namedview1"
     pagecolor="#ffffff"
     bordercolor="#000000"
     borderopacity="0.25"
     inkscape:showpageshadow="2"
     inkscape:pageopacity="0.0"
     inkscape:pagecheckerboard="0"
     inkscape:deskcolor="#d1d1d1"
     inkscape:document-units="mm"
     inkscape:zoom="2.9405047"
     inkscape:cx="191.46373"
     inkscape:cy="91.99101"
     inkscape:window-width="2560"
     inkscape:window-height="1369"
     inkscape:window-x="-8"
     inkscape:window-y="26"
     inkscape:window-maximized="1"
     inkscape:current-layer="OBJECTS" />
  <defs
     id="defs1" />
  <g
     inkscape:label="Layer 1"
     inkscape:groupmode="layer"
     id="layer1">
    <g
       id="OBJECTS"
       transform="matrix(0.26458333,0,0,0.26458333,-15.798546,-35.076418)">
	<g
   id="g42">
		<g
   id="g8">
			<path
   style="fill:none"
   d="m 411.304,295.218 v 4.208 35.11 4.255 c 4.781,-0.582 8.904,-2.658 12.549,-6.274 4.358,-4.339 6.481,-9.374 6.481,-15.414 0,-0.028 0,-0.066 0,-0.094 -0.019,-6.068 -2.142,-11.13 -6.491,-15.47 -3.635,-3.644 -7.768,-5.729 -12.539,-6.321 z"
   id="path2" />

			<path
   style="fill:#faa341"
   d="m 440.975,335.231 c 3.156,-5.579 4.753,-11.685 4.753,-18.128 0,-0.028 0,-0.066 0,-0.094 h -15.395 c 0,0.028 0,0.066 0,0.094 0,6.039 -2.123,11.074 -6.481,15.414 -3.644,3.616 -7.768,5.692 -12.549,6.274 v 15.545 c 2.16,-0.188 4.321,-0.564 6.472,-1.127 0,0 6.509,-1.747 13.836,-6.922 3.776,-3.025 6.913,-6.735 9.364,-11.056 z"
   id="path3" />

			<path
   style="fill:#bfb1c9"
   d="m 423.843,301.539 c 4.349,4.339 6.472,9.402 6.491,15.47 h 15.395 c -0.019,-10.21 -3.701,-19.067 -10.943,-26.347 -6.566,-6.603 -14.456,-10.257 -23.482,-10.905 v 15.461 c 4.771,0.592 8.904,2.677 12.539,6.321 z"
   id="path4" />

			<path
   style="fill:#e69a6b"
   d="m 428.539,370.746 13.131,-8.003 -10.06,-16.456 c -7.326,5.175 -13.836,6.922 -13.836,6.922 z"
   id="path5" />

			<path
   style="fill:#917186"
   d="m 395.909,338.791 v 29.08 h 15.395 v -12.793 -0.742 -15.545 c 0,0 -9.318,0 -15.395,0 z"
   id="path6" />

			<path
   style="fill:#f6722c"
   d="m 411.304,334.536 v -35.11 -4.208 h -15.395 v 43.573 c 6.077,0 15.395,0 15.395,0 z"
   id="path7" />

			<path
   style="fill:#f5e1d4"
   d="m 411.304,279.757 c -0.958,-0.066 -1.944,-0.103 -2.931,-0.103 h -12.464 v 15.564 h 15.395 z"
   id="path8" />

		</g>

		<g
   id="XMLID_3_">
			<g
   id="XMLID_4_">
				<path
   style="fill:#f6722c"
   d="m 263.809,317.009 c 0,0.028 0,0.066 0,0.094 0,6.443 -1.597,12.549 -4.753,18.128 -2.452,4.321 -5.589,8.031 -9.365,11.055 -7.326,5.175 -13.836,6.922 -13.836,6.922 -2.151,0.564 -4.311,0.939 -6.472,1.127 V 338.79 c 4.781,-0.582 8.904,-2.658 12.549,-6.274 4.358,-4.34 6.481,-9.374 6.481,-15.414 0,-0.028 0,-0.066 0,-0.094 h 15.396 z"
   id="path9" />

				<path
   style="fill:#e69a6b"
   d="m 252.866,290.663 c 7.242,7.279 10.924,16.137 10.943,26.347 h -15.395 c -0.019,-6.068 -2.142,-11.13 -6.49,-15.47 -3.635,-3.644 -7.768,-5.73 -12.539,-6.321 v -15.461 c 9.025,0.647 16.915,4.301 23.481,10.905 z"
   id="path10" />

				<path
   style="fill:#917186"
   d="m 249.691,346.287 10.06,16.456 -13.131,8.003 -10.764,-17.536 c -0.001,-10e-4 6.509,-1.748 13.835,-6.923 z"
   id="path11" />

				<path
   style="fill:#faa341"
   d="m 229.384,354.336 v 0.742 12.793 h -15.395 v -29.08 c 6.077,0 15.395,0 15.395,0 z"
   id="path12" />

				<path
   style="fill:#bfb1c9"
   d="m 229.384,334.536 v 4.255 c 0,0 -9.318,0 -15.395,0 v -43.573 h 15.395 v 4.208 z"
   id="path13" />

				<path
   style="fill:#917186"
   d="m 229.384,279.757 v 15.461 h -15.395 v -15.564 h 12.464 c 0.986,0 1.973,0.038 2.931,0.103 z"
   id="path14" />

			</g>

		</g>

		<g
   id="g21">
			<path
   style="fill:none"
   d="m 304.629,307.419 c -3.992,5.138 -5.936,11.027 -5.936,17.874 0,6.819 1.963,12.69 5.983,17.837 0.817,1.061 1.728,2.085 2.733,3.09 5.824,5.823 12.615,8.679 20.767,8.716 0.056,0 0.103,0 0.16,0 8.285,0 15.16,-2.855 21.031,-8.716 1.259,-1.259 2.376,-2.564 3.353,-3.926 3.597,-4.95 5.354,-10.548 5.354,-17.001 0,-0.019 0,-0.028 0,-0.047 -0.009,-8.266 -2.865,-15.122 -8.707,-20.983 -5.871,-5.861 -12.746,-8.707 -21.031,-8.707 -0.056,0 -0.103,0 -0.16,0 -8.153,0.038 -14.944,2.884 -20.767,8.707 -1.024,1.024 -1.944,2.067 -2.78,3.156 z"
   id="path15" />

			<path
   style="fill:#bfb1c9"
   d="m 358.074,325.294 c 0,6.453 -1.757,12.051 -5.354,17.001 l 12.558,9.111 c 5.561,-7.589 8.369,-16.344 8.369,-26.112 0,-0.019 0,-0.028 0,-0.047 h -15.573 c 0,0.019 0,0.028 0,0.047 z"
   id="path16" />

			<path
   style="fill:#e69a6b"
   d="m 328.336,279.983 c -0.056,0 -0.103,0 -0.16,0 v 15.573 c 0.056,0 0.103,0 0.16,0 8.285,0 15.16,2.846 21.031,8.707 5.842,5.861 8.698,12.718 8.707,20.983 h 15.573 c -0.009,-12.38 -4.49,-23.125 -13.31,-31.954 -8.838,-8.838 -19.602,-13.309 -32.001,-13.309 z"
   id="path17" />

			<path
   style="fill:#faa341"
   d="m 349.367,346.221 c -5.871,5.861 -12.746,8.716 -21.031,8.716 -0.056,0 -0.103,0 -0.16,0 v 15.479 c 0.056,0 0.103,0 0.16,0 12.398,0 23.163,-4.462 31.992,-13.263 1.841,-1.832 3.494,-3.748 4.95,-5.748 l -12.558,-9.111 c -0.977,1.363 -2.094,2.668 -3.353,3.927 z"
   id="path18" />

			<path
   style="fill:#917186"
   d="m 307.409,346.221 c -1.005,-1.005 -1.916,-2.029 -2.733,-3.09 h -17.837 c 2.198,5.128 5.41,9.825 9.637,14.061 8.698,8.735 19.368,13.188 31.701,13.225 v -15.479 c -8.153,-0.038 -14.944,-2.894 -20.768,-8.717 z"
   id="path19" />

			<path
   style="fill:#f6722c"
   d="m 307.409,304.263 c 5.824,-5.824 12.615,-8.669 20.767,-8.707 v -15.573 c -12.342,0.038 -23.012,4.518 -31.719,13.328 -1.587,1.615 -3.043,3.287 -4.349,5.025 l 12.521,9.083 c 0.836,-1.089 1.756,-2.132 2.78,-3.156 z"
   id="path20" />

			<path
   style="fill:#f5e1d4"
   d="m 298.693,325.294 c 0,-6.847 1.944,-12.737 5.936,-17.874 l -12.521,-9.083 c -4.49,5.983 -7.279,12.718 -8.322,20.11 -0.319,2.226 -0.479,4.509 -0.479,6.847 0,6.406 1.184,12.361 3.532,17.837 h 17.837 c -4.02,-5.148 -5.983,-11.018 -5.983,-17.837 z"
   id="path21" />

		</g>

		<g
   id="g28">
			<path
   style="fill:none"
   d="m 155.676,334.536 v 4.255 c 4.781,-0.582 8.914,-2.658 12.558,-6.274 4.358,-4.339 6.472,-9.374 6.472,-15.414 0,-0.028 0,-0.066 0,-0.094 -0.019,-6.068 -2.142,-11.13 -6.481,-15.47 -3.644,-3.645 -7.768,-5.73 -12.549,-6.321 v 4.208 z"
   id="path22" />

			<path
   style="fill:#917186"
   d="m 174.706,317.103 c 0,6.039 -2.113,11.074 -6.472,15.414 -3.644,3.616 -7.777,5.692 -12.558,6.274 v 15.545 c 2.16,-0.188 4.33,-0.564 6.481,-1.127 0,0 6.509,-1.747 13.826,-6.922 3.776,-3.025 6.923,-6.735 9.365,-11.055 3.156,-5.579 4.753,-11.685 4.753,-18.128 0,-0.028 0,-0.066 0,-0.094 h -15.395 c 0,0.028 0,0.065 0,0.093 z"
   id="path23" />

			<path
   style="fill:#bfb1c9"
   d="m 155.676,279.757 v 15.461 c 4.781,0.592 8.904,2.677 12.549,6.321 4.339,4.339 6.462,9.402 6.481,15.47 h 15.395 c -0.019,-10.21 -3.701,-19.067 -10.943,-26.347 -6.565,-6.603 -14.455,-10.257 -23.482,-10.905 z"
   id="path24" />

			<path
   style="fill:#e69a6b"
   d="m 172.912,370.746 13.131,-8.003 -10.06,-16.456 c -7.317,5.175 -13.826,6.922 -13.826,6.922 z"
   id="path25" />

			<path
   style="fill:#f6722c"
   d="m 140.291,338.791 v 29.08 h 15.385 v -12.793 -0.742 -15.545 c 0,0 -9.308,0 -15.385,0 z"
   id="path26" />

			<path
   style="fill:#faa341"
   d="m 155.676,334.536 v -35.11 -4.208 h -15.385 v 43.573 c 6.077,0 15.385,0 15.385,0 z"
   id="path27" />

			<path
   style="fill:#f5e1d4"
   d="m 155.676,279.757 c -0.958,-0.066 -1.944,-0.103 -2.931,-0.103 H 140.29 v 15.564 h 15.385 v -15.461 z"
   id="path28" />

		</g>

		<g
   id="g31">
			<rect
   x="85.022003"
   y="353.914"
   style="fill:#faa341"
   width="27.671"
   height="15.395"
   id="rect28" />

			<polygon
   style="fill:#f5e1d4"
   points="85.022,345.479 85.022,345.714 110.101,345.714 110.101,330.319 85.022,330.319 "
   id="polygon28" />

			<polygon
   style="fill:#917186"
   points="85.022,296.477 85.022,296.486 109.913,296.486 109.913,281.091 85.022,281.091 "
   id="polygon29" />

			<polygon
   style="fill:#f6722c"
   points="85.022,369.309 85.022,353.914 85.022,345.714 85.022,345.479 69.449,345.479 69.449,369.309 "
   id="polygon30" />

			<polygon
   style="fill:#bfb1c9"
   points="69.449,345.479 85.022,345.479 85.022,330.319 85.022,296.486 85.022,296.477 69.449,296.477 "
   id="polygon31" />

			<rect
   x="69.448997"
   y="281.091"
   style="fill:#e69a6b"
   width="15.573"
   height="15.385"
   id="rect31" />

		</g>

		<g
   id="g32">
			<path
   style="fill:none;stroke:#021945;stroke-width:5;stroke-miterlimit:10"
   d="m 224.192,338.745 c 4.781,-0.582 8.904,-2.658 12.549,-6.274 4.358,-4.34 6.481,-9.374 6.481,-15.414 0,-0.028 0,-0.066 0,-0.094 -0.019,-6.068 -2.142,-11.13 -6.49,-15.47 -3.635,-3.645 -7.768,-5.73 -12.54,-6.321 v 4.208"
   id="path31" />

			<path
   style="fill:none;stroke:#021945;stroke-width:5;stroke-miterlimit:10"
   d="m 208.797,338.745 v 29.08 h 15.395 v -12.793 -0.742 c 2.16,-0.188 4.321,-0.564 6.472,-1.127 l 10.764,17.536 13.131,-8.003 -10.06,-16.456 m 9.365,-11.055 c 3.156,-5.579 4.753,-11.685 4.753,-18.128 0,-0.028 0,-0.066 0,-0.094 -0.019,-10.21 -3.701,-19.067 -10.943,-26.347 -6.566,-6.603 -14.439,-10.557 -23.482,-10.905 -2.15,-0.083 -3.82,-0.13 -2.93,-0.103 h -12.464 v 15.564 20.407 m 15.394,11.682 v -27.882 -4.208 c 4.772,0.592 8.904,2.677 12.54,6.321 4.349,4.34 6.472,9.402 6.49,15.47 0,0.028 0,0.066 0,0.094 0,6.039 -2.123,11.074 -6.481,15.414"
   id="path32" />

		</g>

		<g
   id="g35">
			<path
   style="fill:none;stroke:#021945;stroke-width:5;stroke-miterlimit:10"
   d="m 347.528,342.248 c 3.598,-4.95 5.354,-10.548 5.354,-17.001 0,-0.019 0,-0.028 0,-0.047 -0.009,-8.266 -2.865,-15.122 -8.707,-20.983 -5.87,-5.861 -12.746,-8.707 -21.03,-8.707 -0.056,0 -0.103,0 -0.16,0"
   id="path33" />

			<path
   style="fill:none;stroke:#021945;stroke-width:5;stroke-miterlimit:10"
   d="m 299.437,307.373 c -3.992,5.138 -5.936,11.027 -5.936,17.875 0,6.819 1.963,12.69 5.983,17.837 0.817,1.061 1.728,2.085 2.733,3.09 5.823,5.824 12.614,8.679 20.767,8.717 0.056,0 0.103,0 0.16,0"
   id="path34" />

			<path
   style="fill:none;stroke:#021945;stroke-width:5;stroke-miterlimit:10"
   d="m 278.185,327.907 c 0.284,5.402 1.442,10.467 3.462,15.177 2.198,5.128 5.41,9.825 9.637,14.061 8.698,8.735 19.368,13.188 31.701,13.225 0.056,0 0.103,0 0.16,0 12.398,0 23.163,-4.462 31.992,-13.263 1.841,-1.832 3.494,-3.748 4.95,-5.748 5.56,-7.589 8.369,-16.344 8.369,-26.112 0,-0.019 0,-0.028 0,-0.047 -0.009,-12.38 -4.49,-23.125 -13.31,-31.954 m -14.804,-10.027 c -3.068,-1.263 -6.281,-2.163 -9.634,-2.697 -2.448,-0.39 -4.97,-0.586 -7.563,-0.586 -0.056,0 -0.103,0 -0.16,0 -1.543,0.005 -3.059,0.079 -4.549,0.222 -10.43,1.003 -19.551,5.397 -27.17,13.106 -1.587,1.616 -3.043,3.288 -4.349,5.025 -4.49,5.983 -7.279,12.718 -8.322,20.11 m 61.172,31.48 c -4.845,3.363 -10.327,5.012 -16.622,5.012 -0.056,0 -0.103,0 -0.16,0 -8.153,-0.038 -14.944,-2.893 -20.767,-8.717 -1.005,-1.005 -1.916,-2.029 -2.733,-3.09 -4.02,-5.147 -5.983,-11.018 -5.983,-17.837 0,-6.847 1.944,-12.737 5.936,-17.875 m 23.547,-11.863 c 0.056,0 0.103,0 0.16,0 8.284,0 15.16,2.846 21.03,8.707 5.842,5.861 8.698,12.718 8.707,20.983 0,0.019 0,0.028 0,0.047 0,6.453 -1.756,12.051 -5.354,17.001"
   id="path35" />

		</g>

		<g
   id="g37">
			<path
   style="fill:none;stroke:#021945;stroke-width:5;stroke-miterlimit:10"
   d="m 150.484,295.171 v 4.208 35.11 4.255 c 4.781,-0.582 8.914,-2.658 12.558,-6.274 4.358,-4.34 6.472,-9.374 6.472,-15.414 0,-0.028 0,-0.066 0,-0.094 -0.019,-6.068 -2.142,-11.13 -6.481,-15.47"
   id="path36" />

			<path
   style="fill:none;stroke:#021945;stroke-width:5;stroke-miterlimit:10"
   d="m 181.579,362.696 -10.06,-16.456 c 3.776,-3.024 6.923,-6.735 9.365,-11.055 3.156,-5.579 4.753,-11.685 4.753,-18.128 0,-0.028 0,-0.066 0,-0.094 -0.019,-10.21 -3.701,-19.067 -10.943,-26.347 -6.566,-6.603 -14.456,-10.257 -23.482,-10.905 m -15.386,88.114 h 15.385 v -12.793 -0.742 c 2.16,-0.188 4.33,-0.564 6.481,-1.127 l 10.755,17.536 m -32.621,-91.092 v 15.564 20.927 22.646 17.332 m 31.744,-48.227 c 1.292,2.767 1.934,5.79 1.944,9.114 0,0.028 0,0.066 0,0.094 0,6.039 -2.113,11.074 -6.472,15.414 -3.644,3.616 -7.777,5.692 -12.558,6.274 v -4.255 -35.11 -4.208"
   id="path37" />

		</g>

		<g
   id="g39">
			<path
   style="fill:none;stroke:#021945;stroke-width:5;stroke-miterlimit:10"
   d="m 405.379,295.171 v 4.208 35.11 4.255 c 4.781,-0.582 8.914,-2.658 12.558,-6.274 4.358,-4.34 6.472,-9.374 6.472,-15.414 0,-0.028 0,-0.066 0,-0.094 -0.019,-6.068 -2.142,-11.13 -6.481,-15.47"
   id="path38" />

			<path
   style="fill:none;stroke:#021945;stroke-width:5;stroke-miterlimit:10"
   d="m 436.474,362.696 -10.06,-16.456 c 3.776,-3.024 6.923,-6.735 9.365,-11.055 3.156,-5.579 4.753,-11.685 4.753,-18.128 0,-0.028 0,-0.066 0,-0.094 -0.019,-10.21 -3.701,-19.067 -10.943,-26.347 -6.566,-6.603 -14.456,-10.257 -23.482,-10.905 m -15.386,88.114 h 15.385 v -12.793 -0.742 c 2.16,-0.188 4.33,-0.564 6.481,-1.127 l 10.755,17.536 m -32.621,-91.092 v 15.564 20.927 22.646 17.332 m 31.744,-48.227 c 1.292,2.767 1.934,5.79 1.944,9.114 0,0.028 0,0.066 0,0.094 0,6.039 -2.113,11.074 -6.472,15.414 -3.644,3.616 -7.777,5.692 -12.558,6.274 v -4.255 -35.11 -4.208"
   id="path39" />

		</g>

		<g
   id="g41">
			<polyline
   style="fill:none;stroke:#021945;stroke-width:5;stroke-miterlimit:10"
   points="79.83,369.262 107.501,369.262      107.501,353.867 79.83,353.867 79.83,345.667 89.231,345.667    "
   id="polyline39" />

			<polyline
   style="fill:none;stroke:#021945;stroke-width:5;stroke-miterlimit:10"
   points="64.257,296.43 64.257,345.432      64.257,369.262    "
   id="polyline40" />

			<polyline
   style="fill:none;stroke:#021945;stroke-width:5;stroke-miterlimit:10"
   points="104.909,345.667 104.909,330.272      79.83,330.272 79.83,296.439 104.721,296.439 104.721,281.044 79.83,281.044 64.257,281.044    "
   id="polyline41" />

		</g>

	</g>

	<g
   id="g63">
		<g
   id="g49">
			<g
   id="XMLID_2_">
				<path
   style="fill:#f6722c"
   d="m 319.16,173.774 v 49.676 l -0.468,0.468 h -37.795 c 7.119,-6.118 11.628,-15.183 11.628,-25.306 0,-10.029 -4.425,-19.019 -11.432,-25.137 h 37.767 z"
   id="path42" />

				<path
   style="fill:#f5e1d4"
   d="m 318.703,173.474 h -37.696 c -2.661,-2.316 -5.705,-4.23 -9.02,-5.612 l 12.008,-29.096 z"
   id="path43" />

				<path
   style="fill:#917186"
   d="m 318.708,223 -34.852,34.852 h -0.207 l -12.078,-29.264 c 3.349,-1.373 6.434,-3.273 9.134,-5.587 h 38.003 z"
   id="path44" />

				<path
   style="fill:#faa341"
   d="m 283.996,138.679 -12.008,29.096 c -3.95,-1.653 -8.292,-2.568 -12.839,-2.568 -4.529,0 -8.843,0.906 -12.774,2.54 l -12.017,-29.124 h 49.582 z"
   id="path45" />

				<path
   style="fill:#e69a6b"
   d="m 271.745,228.803 11.989,29.049 h -49.097 l 11.971,-29.03 c 3.875,1.578 8.105,2.446 12.54,2.446 4.455,0 8.713,-0.878 12.597,-2.465 z"
   id="path46" />

				<path
   style="fill:#f5e1d4"
   d="m 246.782,228.606 -12.059,29.245 h -0.282 L 199.589,223 h 38.003 c 2.718,2.333 5.813,4.233 9.19,5.606 z"
   id="path47" />

				<path
   style="fill:#bfb1c9"
   d="m 234.358,138.711 12.017,29.124 c -3.343,1.391 -6.406,3.305 -9.085,5.64 h -37.695 z"
   id="path48" />

				<path
   style="fill:#bfb1c9"
   d="m 237.277,223.917 h -37.795 l -0.468,-0.468 v -49.676 l 0.299,-0.299 h 37.767 c -7.007,6.118 -11.432,15.109 -11.432,25.137 0,10.123 4.509,19.188 11.629,25.306 z"
   id="path49" />

			</g>

		</g>

		<g
   id="g53">
			<polygon
   style="fill:#e69a6b"
   points="139.4,200.071 163.141,200.071 172.417,200.071 172.417,223.917 163.141,223.917 139.4,223.917 "
   id="polygon49" />

			<rect
   x="139.39999"
   y="223.91701"
   style="fill:#f6722c"
   width="23.846001"
   height="30.266001"
   id="rect49" />

			<rect
   x="139.39999"
   y="180.811"
   style="fill:#917186"
   width="23.846001"
   height="19.26"
   id="rect50" />

			<rect
   x="139.39999"
   y="136.78799"
   style="fill:#bfb1c9"
   width="23.846001"
   height="44.022999"
   id="rect51" />

			<polygon
   style="fill:#bfb1c9"
   points="124.046,200.071 139.4,200.071 139.4,223.917 105.173,223.917 124.009,200.071 "
   id="polygon51" />

			<polygon
   style="fill:#f5e1d4"
   points="92.273,200.071 139.4,136.343 139.4,180.369 131.659,190.22 123.881,200.071 "
   id="polygon52" />

			<polygon
   style="fill:#faa341"
   points="74.983,223.917 92.615,200.071 123.962,200.071 105.126,223.917 "
   id="polygon53" />

		</g>

		<polygon
   style="fill:none;stroke:#021945;stroke-width:5;stroke-miterlimit:10"
   points="129.833,179.468 122.093,189.319 114.315,199.17 114.352,199.17 129.833,199.17 "
   id="polygon54" />

		<path
   style="fill:none;stroke:#021945;stroke-width:5;stroke-miterlimit:10"
   d="m 250.231,164.687 c -4.529,0 -8.843,0.906 -12.774,2.54 -3.343,1.391 -6.405,3.306 -9.085,5.64 -6.994,6.107 -11.411,15.08 -11.411,25.09 0,10.103 4.501,19.151 11.607,25.258 2.699,2.316 5.771,4.202 9.123,5.565"
   id="path54" />

		<path
   style="fill:none;stroke:#021945;stroke-width:5;stroke-miterlimit:10"
   d="m 250.231,231.226 c 4.454,0 8.712,-0.878 12.596,-2.465 3.324,-1.363 6.387,-3.249 9.067,-5.546 7.106,-6.107 11.607,-15.155 11.607,-25.258 0,-10.01 -4.417,-18.983 -11.41,-25.09"
   id="path55" />

		<path
   style="fill:none;stroke:#021945;stroke-width:5;stroke-miterlimit:10"
   d="m 295.528,237.304 14.09,-14.09 0.467,-0.467 M 225.44,257.81 h 0.28 49.097 0.205 l 10.05,-10.05 m -72.104,-97.185 -22.291,22.291 -0.299,0.299 v 49.582 l 0.467,0.467 17.234,17.234 m 102.006,-67.283 -0.299,-0.299 -34.708,-34.707 -0.056,-0.056 H 225.44 m 46.651,34.763 c 6.994,6.107 11.41,15.08 11.41,25.09 0,10.103 -4.501,19.151 -11.607,25.258 -2.68,2.297 -5.743,4.183 -9.067,5.546 -3.884,1.587 -8.142,2.465 -12.596,2.465 m -12.54,-2.446 c -3.352,-1.363 -6.424,-3.249 -9.123,-5.565 -7.106,-6.107 -11.607,-15.155 -11.607,-25.258 0,-10.01 4.417,-18.983 11.411,-25.09 2.68,-2.334 5.742,-4.248 9.085,-5.64 3.931,-1.634 8.245,-2.54 12.774,-2.54"
   id="path56" />

		<g
   id="g57">
			<path
   style="fill:none;stroke:#021945;stroke-width:5;stroke-miterlimit:10"
   d="M 163.103,223.214 V 199.17 h -9.347 V 179.468 M 82.707,199.17 64.928,223.214 h 30.394 34.511 v 30.3 h 23.923 v -30.3 m 0.947,-87.772 h -24.869 l -30.869,41.744 m 15.387,21.984 h -0.037 l 7.778,-9.851 7.741,-9.851 v 19.702 z"
   id="path57" />

			
				<line
   style="fill:none;stroke:#021945;stroke-width:5;stroke-miterlimit:10"
   x1="153.785"
   y1="149.32001"
   x2="153.785"
   y2="179.468"
   id="line57" />

		</g>

		<g
   id="g61">
			<g
   id="XMLID_1_">
				<polygon
   style="fill:#e69a6b"
   points="410.783,200.071 434.628,200.071 443.8,200.071 443.8,223.917 434.628,223.917 410.783,223.917 "
   id="polygon57" />

				<rect
   x="410.78299"
   y="223.91701"
   style="fill:#f5e1d4"
   width="23.846001"
   height="30.266001"
   id="rect57" />

				<rect
   x="410.78299"
   y="180.811"
   style="fill:#917186"
   width="23.846001"
   height="19.26"
   id="rect58" />

				<polygon
   style="fill:#f6722c"
   points="410.783,136.788 434.628,136.788 434.628,180.811 410.783,180.811 410.783,180.371 "
   id="polygon58" />

				<polygon
   style="fill:#bfb1c9"
   points="395.393,200.071 395.43,200.071 410.783,200.071 410.783,223.917 376.555,223.917 395.375,200.09 "
   id="polygon59" />

				<polygon
   style="fill:#faa341"
   points="363.66,200.071 410.783,136.339 410.783,136.788 410.783,180.371 403.042,190.221 395.265,200.071 363.999,200.071 "
   id="polygon60" />

				<polygon
   style="fill:#f5e1d4"
   points="363.999,200.071 395.265,200.071 395.347,200.071 376.509,223.917 346.372,223.917 "
   id="polygon61" />

			</g>

		</g>

		<polygon
   style="fill:none;stroke:#021945;stroke-width:5;stroke-miterlimit:10"
   points="401.219,179.468 393.479,189.319 385.701,199.17 385.738,199.17 401.219,199.17 "
   id="polygon62" />

		<g
   id="g62">
			<path
   style="fill:none;stroke:#021945;stroke-width:5;stroke-miterlimit:10"
   d="M 434.489,223.214 V 199.17 h -9.347 v -19.702 m -71.049,19.702 -17.779,24.044 h 30.394 34.511 v 30.3 h 23.923 v -30.3 m 0.947,-87.772 H 401.22 l -30.869,41.744 m 15.387,21.984 h -0.037 l 7.778,-9.851 7.741,-9.851 v 19.702 z"
   id="path62" />

			
				<line
   style="fill:none;stroke:#021945;stroke-width:5;stroke-miterlimit:10"
   x1="425.17099"
   y1="149.32001"
   x2="425.17099"
   y2="179.468"
   id="line62" />

		</g>

	</g>

	<g
   id="g64">
		<line
   style="fill:none"
   x1="72.917"
   y1="280.41699"
   x2="92.583"
   y2="280.41699"
   id="line63" />

	</g>

</g>
  </g>
</svg>
